<?xml version="1.0" encoding="UTF-8" standalone="no"?>
<svg width="72px" height="72px" viewBox="0 0 72 72" version="1.1" xmlns="http://www.w3.org/2000/svg" xmlns:xlink="http://www.w3.org/1999/xlink">
    <!-- Generator: Sketch 3.6.1 (26313) - http://www.bohemiancoding.com/sketch -->
    <title>fi-social-linkedin</title>
    <desc>Created with Sketch.</desc>
    <defs></defs>
    <g id="Symbols" stroke="none" stroke-width="1" fill="none" fill-rule="evenodd">
        <g id="Icons" transform="translate(-1145.000000, -2854.000000)" fill="#000000">
            <g id="fi-social-linkedin" transform="translate(1145.000000, 2854.000000)">
                <g id="Layer_1">
                    <path d="M66.667,0 L5.315,0 C2.381,0 0,2.325 0,5.188 L0,66.805 C0,69.672 2.381,72 5.315,72 L66.667,72 C69.603,72 72,69.672 72,66.805 L72,5.188 C72,2.325 69.603,0 66.667,0 L66.667,0 Z M21.354,61.354 L10.67,61.354 L10.67,26.995 L21.354,26.995 L21.354,61.354 L21.354,61.354 Z M16.012,22.297 C12.589,22.297 9.822,19.523 9.822,16.103 C9.822,12.688 12.589,9.914 16.012,9.914 C19.427,9.914 22.201,12.688 22.201,16.103 C22.201,19.523 19.427,22.297 16.012,22.297 L16.012,22.297 Z M61.35,61.354 L50.683,61.354 L50.683,44.646 C50.683,40.66 50.605,35.535 45.132,35.535 C39.574,35.535 38.727,39.876 38.727,44.357 L38.727,61.355 L28.052,61.355 L28.052,26.995 L38.297,26.995 L38.297,31.687 L38.443,31.687 C39.869,28.987 43.353,26.138 48.549,26.138 C59.355,26.138 61.351,33.252 61.351,42.507 L61.351,61.354 L61.35,61.354 Z" id="Shape"></path>
                </g>
            </g>
        </g>
    </g>
</svg>