<?xml version="1.0" encoding="UTF-8" standalone="no"?>
<svg width="180px" height="180px" viewBox="0 0 180 180" version="1.1" xmlns="http://www.w3.org/2000/svg" xmlns:xlink="http://www.w3.org/1999/xlink">
    <!-- Generator: Sketch 3.6.1 (26313) - http://www.bohemiancoding.com/sketch -->
    <title>Sweat</title>
    <desc>Created with Sketch.</desc>
    <defs></defs>
    <g id="Welcome" stroke="none" stroke-width="1" fill="none" fill-rule="evenodd">
        <g id="Sweat">
            <g id="Group" transform="translate(40.000000, 15.000000)">
                <path d="M49.7571958,0.446262181 L49.9999995,1.11022302e-16 C49.9999995,1.11022302e-16 49.9068454,0.136887388 49.7294344,0.398093092 L49.5,0 L47.3429636,3.9218844 C39.7853952,15.1065083 18.2673568,47.1633124 11.3332077,59.7666409 C3.52985971,73.9498023 1.19380896,89.7035985 1.19380896,89.7035985 L1.28072401,89.5438526 C0.442819446,93.0645765 0,96.7319408 0,100.499638 C0,127.288154 22.3857625,149.004537 50,149.004537 C77.6142375,149.004537 100,127.288154 100,100.499638 C100,96.73284 99.5573919,93.066327 98.7198758,89.5463733 L98.806191,89.7035985 C98.806191,89.7035985 96.4701403,73.9498023 88.6667923,59.7666409 C80.2014099,44.3801828 50.0000005,0.801955163 50.0000005,0.801955163 L50.7590951,2.18466413 L49.7571958,0.446262181 Z" id="Combined-Shape" stroke="#000000" stroke-width="3"></path>
                <path d="M42.2927262,35.7786402 C22.214275,67.8609232 19.6699236,71.9227077 19.6699236,71.9227077" id="Path-8" stroke="#3A3636" stroke-width="4"></path>
                <path d="M87.8275673,94 L85.9383294,99.900894 C84.7582105,103.586908 82.1461837,109.238666 80.0913929,112.515627 C80.0913929,112.515627 79.6836351,113.229738 78.4232411,115.110544 C76.8525541,117.454381 78.4232411,115.110544 78.4232411,115.110544 C75.3992623,119.376772 69.5172667,125.724978 65.3011708,129.276404 L60.3933282,133.410522" id="Path-9" stroke="#3F3B3B" stroke-width="4"></path>
            </g>
        </g>
    </g>
</svg>