<?xml version="1.0" encoding="UTF-8" standalone="no"?>
<svg width="180px" height="180px" viewBox="0 0 180 180" version="1.1" xmlns="http://www.w3.org/2000/svg" xmlns:xlink="http://www.w3.org/1999/xlink">
    <!-- Generator: Sketch 3.6.1 (26313) - http://www.bohemiancoding.com/sketch -->
    <title>Blood</title>
    <desc>Created with Sketch.</desc>
    <defs></defs>
    <g id="Welcome" stroke="none" stroke-width="1" fill="none" fill-rule="evenodd">
        <g id="Blood" fill="#D04141">
            <path d="M89.7571958,15.4462622 L89.9999995,15 C89.9999995,15 89.9068454,15.1368874 89.7294344,15.3980931 L89.5,15 L87.3429636,18.9218844 C79.7853952,30.1065083 58.2673568,62.1633124 51.3332077,74.7666409 C43.5298597,88.9498023 41.193809,104.703599 41.193809,104.703599 L41.280724,104.543853 C40.4428194,108.064577 40,111.731941 40,115.499638 C40,142.288154 62.3857625,164.004537 90,164.004537 C117.614237,164.004537 140,142.288154 140,115.499638 C140,111.73284 139.557392,108.066327 138.719876,104.546373 L138.806191,104.703599 C138.806191,104.703599 136.47014,88.9498023 128.666792,74.7666409 C120.20141,59.3801828 90.0000005,15.8019552 90.0000005,15.8019552 L90.7590951,17.1846641 L89.7571958,15.4462622 Z" id="Combined-Shape"></path>
        </g>
    </g>
</svg>