<?xml version="1.0" encoding="UTF-8" standalone="no"?>
<svg width="180px" height="180px" viewBox="0 0 180 180" version="1.1" xmlns="http://www.w3.org/2000/svg" xmlns:xlink="http://www.w3.org/1999/xlink">
    <!-- Generator: Sketch 3.6.1 (26313) - http://www.bohemiancoding.com/sketch -->
    <title>180 - iPhone 6 Plus</title>
    <desc>Created with Sketch.</desc>
    <defs></defs>
    <g id="Welcome" stroke="none" stroke-width="1" fill="none" fill-rule="evenodd">
        <g id="180---iPhone-6-Plus" stroke="#2B2828" fill="#9A9696">
            <path d="M90.5,154 C125.570082,154 154,125.570082 154,90.5 C154,55.4299184 125.570082,27 90.5,27 C55.4299184,27 27,55.4299184 27,90.5 C27,125.570082 55.4299184,154 90.5,154 Z M90.5,141 C118.39038,141 141,118.39038 141,90.5 C141,62.6096201 118.39038,40 90.5,40 C62.6096201,40 40,62.6096201 40,90.5 C40,118.39038 62.6096201,141 90.5,141 Z" id="Combined-Shape"></path>
            <path d="M57,80.9346734 C61.108635,66.5391079 74.3614607,56 90.0758269,56 C109.070365,56 124.46848,71.3981152 124.46848,90.3926529 C124.46848,109.387191 109.070365,124.785306 90.0758269,124.785306 C74.3614607,124.785306 61.108635,114.246198 57,99.8506325 L66.2808975,99.8506325 C70.1349683,108.946459 79.1452779,115.327326 89.6459188,115.327326 C103.65439,115.327326 115.0105,103.971216 115.0105,89.9627448 C115.0105,75.9542732 103.65439,64.5981632 89.6459188,64.5981632 C78.8174199,64.5981632 69.5737694,71.3837061 65.9350858,80.9346734 L57,80.9346734 Z" id="Combined-Shape"></path>
        </g>
    </g>
</svg>