<?xml version="1.0" encoding="UTF-8" standalone="no"?>
<svg width="78px" height="64px" viewBox="0 0 78 64" version="1.1" xmlns="http://www.w3.org/2000/svg" xmlns:xlink="http://www.w3.org/1999/xlink">
    <!-- Generator: Sketch 3.6.1 (26313) - http://www.bohemiancoding.com/sketch -->
    <title>fi-social-twitter</title>
    <desc>Created with Sketch.</desc>
    <defs></defs>
    <g id="Symbols" stroke="none" stroke-width="1" fill="none" fill-rule="evenodd">
        <g id="Icons" transform="translate(-1142.000000, -3120.000000)" fill="#000000">
            <g id="fi-social-twitter" transform="translate(1142.000000, 3120.000000)">
                <g id="Layer_1">
                    <path d="M77.5,8.12 C74.667,9.376 71.623,10.225 68.427,10.606 C71.688,8.651 74.194,5.555 75.372,1.868 C72.32,3.678 68.938,4.994 65.341,5.7 C62.46,2.632 58.354,0.712 53.81,0.712 C45.086,0.712 38.012,7.784 38.012,16.51 C38.012,17.747 38.152,18.954 38.422,20.111 C25.292,19.452 13.652,13.162 5.86,3.603 C4.5,5.937 3.721,8.652 3.721,11.546 C3.721,17.027 6.51,21.861 10.749,24.695 C8.16,24.612 5.724,23.901 3.594,22.719 C3.592,22.785 3.592,22.85 3.592,22.918 C3.592,30.57 9.037,36.955 16.263,38.408 C14.938,38.767 13.543,38.961 12.102,38.961 C11.083,38.961 10.094,38.863 9.129,38.678 C11.139,44.953 16.973,49.522 23.886,49.65 C18.479,53.886 11.668,56.413 4.266,56.413 C2.991,56.413 1.734,56.339 0.497,56.192 C7.488,60.674 15.792,63.288 24.713,63.288 C53.771,63.288 69.661,39.217 69.661,18.343 C69.661,17.659 69.645,16.976 69.615,16.297 C72.704,14.071 75.383,11.288 77.5,8.12 L77.5,8.12 Z" id="Shape"></path>
                </g>
            </g>
        </g>
    </g>
</svg>