<?xml version="1.0" encoding="UTF-8" standalone="no"?>
<svg width="78px" height="77px" viewBox="0 0 78 77" version="1.1" xmlns="http://www.w3.org/2000/svg" xmlns:xlink="http://www.w3.org/1999/xlink">
    <!-- Generator: Sketch 3.6.1 (26313) - http://www.bohemiancoding.com/sketch -->
    <title>fi-social-github</title>
    <desc>Created with Sketch.</desc>
    <defs></defs>
    <g id="Symbols" stroke="none" stroke-width="1" fill="none" fill-rule="evenodd">
        <g id="Icons" transform="translate(-218.000000, -2851.000000)" fill="#181616">
            <g id="fi-social-github" transform="translate(218.000000, 2851.000000)">
                <g id="Layer_1">
                    <path d="M38.998,0.963 C17.461,0.963 0,18.425 0,39.965 C0,57.196 11.172,71.814 26.671,76.968 C28.623,77.329 29.333,76.128 29.333,75.091 C29.333,74.167 29.299,71.716 29.282,68.458 C18.433,70.817 16.144,63.229 16.144,63.229 C14.37,58.724 11.813,57.526 11.813,57.526 C8.272,55.108 12.082,55.155 12.082,55.155 C15.996,55.432 18.056,59.173 18.056,59.173 C21.534,65.133 27.185,63.408 29.406,62.416 C29.759,59.891 30.769,58.176 31.882,57.199 C23.223,56.215 14.119,52.869 14.119,37.925 C14.119,33.666 15.638,30.184 18.132,27.457 C17.733,26.475 16.392,22.51 18.515,17.138 C18.515,17.138 21.789,16.09 29.241,21.139 C32.35,20.27 35.687,19.836 39.004,19.823 C42.316,19.837 45.654,20.27 48.767,21.139 C56.214,16.09 59.483,17.138 59.483,17.138 C61.611,22.51 60.271,26.475 59.871,27.457 C62.371,30.184 63.879,33.666 63.879,37.925 C63.879,52.904 54.762,56.204 46.074,57.166 C47.472,58.371 48.72,60.756 48.72,64.395 C48.72,69.606 48.673,73.811 48.673,75.09 C48.673,76.135 49.374,77.35 51.354,76.963 C66.836,71.798 78,57.191 78,39.965 C78,18.425 60.539,0.963 38.998,0.963 L38.998,0.963 Z" id="Shape"></path>
                </g>
            </g>
        </g>
    </g>
</svg>